<mxfile host="app.diagrams.net" modified="2024-02-08T07:53:07.146Z" agent="Mozilla/5.0 (Windows NT 10.0; Win64; x64; rv:122.0) Gecko/20100101 Firefox/122.0" version="23.1.1" etag="Zr-e4vU-8N0othXt4nFB" type="github">
  <diagram name="Page-1" id="0K96PLR1MvwcvA66zJDP">
    <mxGraphModel>
      <root>
        <mxCell id="0" />
        <mxCell id="1" parent="0" />
      </root>
    </mxGraphModel>
  </diagram>
</mxfile>
